Coordinates
version=1
nRows=29
nColumns=24
inDegrees=yes

Units are S.I. units (second, meters, Newtons, ...)
Angles are in degrees.

endheader
time	pelvis_tilt	pelvis_list	pelvis_rotation	pelvis_tx	pelvis_ty	pelvis_tz	hip_flexion_r	hip_adduction_r	hip_rotation_r	knee_angle_r	ankle_angle_r	subtalar_angle_r	mtp_angle_r	hip_flexion_l	hip_adduction_l	hip_rotation_l	knee_angle_l	ankle_angle_l	subtalar_angle_l	mtp_angle_l	lumbar_extension	lumbar_bending	lumbar_rotation
      0.94666667	     -5.17510880	     -2.78865873	      0.29401247	     -0.39508345	      0.99114755	      0.34452372	     15.49988582	      7.69626724	     -3.20875074	    -17.16997246	      5.28150197	     -5.87109319	      5.79489661	     20.34068634	     -2.48101559	      0.46555429	    -71.50342912	     -8.00656340	    -11.61058956	     -0.57037270	      4.33661478	      6.90330982	      3.04052834
      0.95083333	     -5.13601407	     -2.72161100	      0.12491533	     -0.39031398	      0.99175054	      0.34480153	     14.97708742	      7.67693488	     -3.07030004	    -16.82605066	      5.25078171	     -5.73118951	      5.79279947	     20.90881711	     -2.41870262	      0.40750983	    -71.51628749	     -7.44490071	    -12.01928547	     -0.61575781	      4.23894965	      6.84337966	      3.23984630
      0.95500000	     -5.09437570	     -2.64868829	     -0.05172671	     -0.38556700	      0.99231584	      0.34507468	     14.46898378	      7.64664621	     -2.94055646	    -16.51822824	      5.25385212	     -5.57224358	      5.78980475	     21.46702535	     -2.35396374	      0.34249260	    -71.49189108	     -6.86200029	    -12.38632784	     -0.67364575	      4.12992080	      6.78124202	      3.39879716
      0.95916667	     -5.06873847	     -2.57779385	     -0.22960553	     -0.38083573	      0.99281539	      0.34534811	     13.98411997	      7.61562745	     -2.81461533	    -16.21954992	      5.26332874	     -5.40138884	      5.78409190	     22.03753566	     -2.29629526	      0.27549452	    -71.43054240	     -6.27777140	    -12.71038501	     -0.75333162	      4.04554074	      6.71390751	      3.56765970
      0.96333333	     -5.03605103	     -2.50770367	     -0.41091501	     -0.37613115	      0.99330453	      0.34561165	     13.50189364	      7.58236812	     -2.68621645	    -15.94024799	      5.29278241	     -5.27307502	      5.78140331	     22.59231695	     -2.24177768	      0.20746618	    -71.32694382	     -5.68823720	    -13.02019512	     -0.79348000	      3.94770623	      6.65038879	      3.65127292
      0.96750000	     -4.97683463	     -2.43277286	     -0.58609757	     -0.37138751	      0.99383106	      0.34585994	     12.96919568	      7.54155164	     -2.54196948	    -15.61681732	      5.30348937	     -5.09211436	      5.77206057	     23.09911159	     -2.17983674	      0.15164400	    -71.16497084	     -5.11282091	    -13.23636654	     -0.88117746	      3.82151241	      6.58511373	      3.85427219
      0.97166667	     -4.96308219	     -2.35727306	     -0.76960316	     -0.36668581	      0.99423997	      0.34611731	     12.50736779	      7.49701168	     -2.40925965	    -15.33461968	      5.34108720	     -4.92462412	      5.75800792	     23.65356041	     -2.12500621	      0.08714209	    -70.97328062	     -4.52882550	    -13.42397153	     -0.99295686	      3.75106401	      6.50939673	      4.03068014
      0.97583333	     -4.93843478	     -2.28511785	     -0.95426084	     -0.36199712	      0.99464311	      0.34635706	     12.04015297	      7.45303569	     -2.26944188	    -15.06655815	      5.38654666	     -4.79691764	      5.75118519	     24.18623751	     -2.07442188	      0.02274930	    -70.74053958	     -3.95229049	    -13.61534867	     -1.04480196	      3.66057283	      6.44160535	      4.11143649
      0.98000000	     -4.92390836	     -2.21082651	     -1.13325712	     -0.35728882	      0.99501189	      0.34657436	     11.57703381	      7.40103602	     -2.13833018	    -14.78449160	      5.44248038	     -4.66601913	      5.74607621	     24.71595152	     -2.01901888	     -0.03155951	    -70.45846732	     -3.38886498	    -13.74799918	     -1.08096289	      3.61054631	      6.39448224	      4.20518540
      0.98416667	     -4.86909388	     -2.15706621	     -1.30636236	     -0.35259385	      0.99540505	      0.34681605	     11.05803527	      7.37159568	     -1.99181197	    -14.47191474	      5.47954554	     -4.48384319	      5.72440031	     25.19625212	     -1.99505318	     -0.07438120	    -70.14750051	     -2.79286268	    -13.70793696	     -1.18830737	      3.47417946	      6.32971877	      4.44554670
      0.98833333	     -4.84888419	     -2.08357762	     -1.49915765	     -0.34792537	      0.99572952	      0.34703907	     10.60326612	      7.31630593	     -1.84598600	    -14.21602997	      5.53927256	     -4.35325985	      5.71460748	     25.69809622	     -1.95283336	     -0.14295917	    -69.78421152	     -2.23244882	    -13.78539751	     -1.23500293	      3.39597544	      6.27037942	      4.52811750
      0.99250000	     -4.80109916	     -2.01978999	     -1.68032515	     -0.34323868	      0.99607793	      0.34726638	     10.10364841	      7.26849471	     -1.70131134	    -13.92828137	      5.59397707	     -4.19850146	      5.70138728	     26.15765922	     -1.92352102	     -0.19743649	    -69.37862764	     -1.66430931	    -13.74161735	     -1.28718033	      3.28178259	      6.20931115	      4.66114647
      0.99666667	     -4.76135921	     -1.96499801	     -1.84075511	     -0.33855764	      0.99637595	      0.34745587	      9.60578271	      7.22438603	     -1.57042788	    -13.62419137	      5.65829945	     -4.03716958	      5.67850058	     26.62064882	     -1.89228326	     -0.21682169	    -68.94114773	     -1.11278597	    -13.60550198	     -1.36543964	      3.17606391	      6.16480196	      4.84407566
      1.00083333	     -4.73031979	     -1.90269587	     -2.02659715	     -0.33389025	      0.99663356	      0.34767222	      9.13518445	      7.17074796	     -1.43252324	    -13.35828251	      5.72490079	     -3.89298595	      5.66070086	     27.07580736	     -1.87113622	     -0.27511336	    -68.45841761	     -0.57292570	    -13.52270211	     -1.42054705	      3.08230562	      6.10738995	      4.95544855
      1.00500000	     -4.69350222	     -1.86765394	     -2.18190915	     -0.32921585	      0.99686593	      0.34786100	      8.63997422	      7.14118622	     -1.31818902	    -13.05073059	      5.79423669	     -3.74202149	      5.63108770	     27.52131308	     -1.86880709	     -0.28971707	    -67.94858598	     -0.04705141	    -13.33281428	     -1.49950806	      2.98732471	      6.07110533	      5.11708570
      1.00916667	     -4.67543459	     -1.80921534	     -2.36382897	     -0.32456256	      0.99704184	      0.34804997	      8.18807838	      7.08398829	     -1.18335563	    -12.79265040	      5.86461633	     -3.59885988	      5.61183745	     27.96766609	     -1.85224456	     -0.34040977	    -67.38964137	      0.46114996	    -13.19282416	     -1.54645981	      2.90577430	      6.02886933	      5.21448497
      1.01333333	     -4.62874407	     -1.76976200	     -2.52592146	     -0.31989130	      0.99724630	      0.34823476	      7.68792431	      7.04312019	     -1.06351864	    -12.49792823	      5.93385446	     -3.44482972	      5.59118386	     28.37048015	     -1.85242205	     -0.36865085	    -66.79217179	      0.96076382	    -12.98155456	     -1.59110669	      2.79250859	      5.99319432	      5.33493515
      1.01750000	     -4.59687136	     -1.74278804	     -2.68015824	     -0.31522116	      0.99738446	      0.34840207	      7.20554791	      7.01108642	     -0.95905358	    -12.20596002	      6.00226532	     -3.29697265	      5.56792490	     28.77933246	     -1.86430079	     -0.38574232	    -66.16287746	      1.43419817	    -12.75103754	     -1.63800107	      2.70561637	      5.97515685	      5.46067594
      1.02166667	     -4.54728659	     -1.70324544	     -2.83588899	     -0.31054521	      0.99754367	      0.34856610	      6.70428872	      6.96102342	     -0.85805649	    -11.91353130	      6.07145739	     -3.14770242	      5.54473646	     29.14857807	     -1.86428509	     -0.41094806	    -65.48147176	      1.88443482	    -12.52135841	     -1.68201102	      2.59107832	      5.93913542	      5.57735714
      1.02583333	     -4.53066729	     -1.68378280	     -2.98384396	     -0.30588060	      0.99758868	      0.34872021	      6.24065713	      6.93133381	     -0.76384887	    -11.62537803	      6.14093433	     -2.99501784	      5.52217710	     29.55014547	     -1.88697483	     -0.42569166	    -64.78306132	      2.31916096	    -12.27816726	     -1.72322100	      2.51611859	      5.92415440	      5.69150109
      1.03000000	     -4.48285688	     -1.66335916	     -3.13147637	     -0.30119895	      0.99768413	      0.34886581	      5.73901620	      6.89574402	     -0.66582654	    -11.32950233	      6.20717447	     -2.84235313	      5.50170446	     29.89296297	     -1.90535567	     -0.44003105	    -64.03022164	      2.72824969	    -12.04418943	     -1.75900283	      2.40416703	      5.91138408	      5.79662658
      1.03416667	     -4.45013654	     -1.65021462	     -3.26876843	     -0.29651544	      0.99771149	      0.34899858	      5.25403702	      6.86437864	     -0.58559330	    -11.03324424	      6.27283837	     -2.69251337	      5.48235068	     30.24256647	     -1.93144931	     -0.44836124	    -63.24769269	      3.11355401	    -11.80585802	     -1.79225032	      2.31262821	      5.90422128	      5.90044265
      1.03833333	     -4.41096850	     -1.64177114	     -3.40276917	     -0.29181975	      0.99772610	      0.34912323	      4.76014012	      6.83457369	     -0.51239900	    -10.73455055	      6.33584753	     -2.53565521	      5.46396311	     30.56672578	     -1.96098753	     -0.45445563	    -62.42485656	      3.47480390	    -11.57010846	     -1.82456675	      2.21434574	      5.90005186	      6.00356716
      1.04250000	     -4.36038361	     -1.63359510	     -3.53160530	     -0.28711540	      0.99773239	      0.34923290	      4.25291601	      6.80017359	     -0.44561924	    -10.43378080	      6.39995310	     -2.37680195	      5.44773770	     30.86081082	     -1.98884379	     -0.46249529	    -61.56035294	      3.80943045	    -11.35229422	     -1.85452644	      2.10387059	      5.89497410	      6.10316982
      1.04666667	     -4.33471441	     -1.63370598	     -3.65659186	     -0.28241114	      0.99766217	      0.34934007	      3.77750633	      6.77399958	     -0.38631895	    -10.14408426	      6.46496201	     -2.21625504	      5.43408623	     31.16838289	     -2.02571070	     -0.46421400	    -60.66470171	      4.12127107	    -11.14176891	     -1.88224961	      2.02231908	      5.89954297	      6.19914212
      1.05083333	     -4.28894883	     -1.64674219	     -3.77159694	     -0.27769332	      0.99760226	      0.34943618	      3.27335338	      6.75758821	     -0.33601557	     -9.84121089	      6.52950847	     -2.05882504	      5.42150411	     31.43731098	     -2.07382479	     -0.46236220	    -59.73213570	      4.41156076	    -10.93709767	     -1.90987033	      1.92044412	      5.91777685	      6.29469518
      1.05500000	     -4.26456973	     -1.66430474	     -3.88551619	     -0.27297516	      0.99746687	      0.34952171	      2.79646112	      6.74514309	     -0.28667373	     -9.54803714	      6.59349972	     -1.90162009	      5.41163025	     31.71474018	     -2.12663201	     -0.45984943	    -58.76767746	      4.67878976	    -10.74937947	     -1.93508045	      1.84206348	      5.94157108	      6.38332187
      1.05916667	     -4.21793801	     -1.68716854	     -3.99172125	     -0.26824458	      0.99733273	      0.34960131	      2.29563188	      6.73400874	     -0.24686653	     -9.25703671	      6.66379953	     -1.74287612	      5.40417963	     31.94941438	     -2.18155164	     -0.45425199	    -57.76491972	      4.93065795	    -10.56866314	     -1.95921652	      1.73879357	      5.96576401	      6.47055259
      1.06333333	     -4.18901625	     -1.70687786	     -4.08820811	     -0.26349158	      0.99715341	      0.34966427	      1.81261794	      6.71713317	     -0.23151641	     -8.96418834	      6.73000428	     -1.57322564	      5.39734169	     32.18360537	     -2.22890310	     -0.44597345	    -56.72098641	      5.14935258	    -10.41029086	     -1.98999086	      1.66057751	      5.98663352	      6.56999454
